<?xml version="1.0" standalone="no"?>
<!DOCTYPE svg PUBLIC "-//W3C//DTD SVG 20010904//EN"
 "http://www.w3.org/TR/2001/REC-SVG-20010904/DTD/svg10.dtd">
<svg version="1.0" xmlns="http://www.w3.org/2000/svg"
 width="412.000000pt" height="188.000000pt" viewBox="0 0 412.000000 188.000000"
 preserveAspectRatio="xMidYMid meet">

<g transform="translate(0.000000,188.000000) scale(0.100000,-0.100000)"
fill="#000000" stroke="none">
<path d="M201 1591 c-29 -52 -8 -151 49 -238 13 -19 17 -33 11 -33 -22 0 -62
50 -96 121 -37 77 -53 76 -41 -2 9 -57 40 -114 92 -169 24 -26 44 -50 44 -54
0 -18 -35 -1 -75 37 -46 44 -57 39 -30 -12 15 -29 101 -111 116 -111 5 0 9 -7
9 -15 0 -22 -13 -19 -69 19 -58 40 -65 33 -19 -19 37 -43 96 -74 238 -127 122
-45 173 -76 195 -118 30 -57 -5 -108 -66 -95 -36 8 -38 -7 -3 -34 32 -25 55
-26 101 -5 25 13 37 14 45 6 13 -13 -16 -52 -39 -52 -8 0 -11 -5 -8 -10 9 -15
86 -11 115 5 38 22 53 19 48 -10 -6 -30 3 -32 25 -7 32 35 21 61 -58 134 -138
129 -228 268 -300 462 -43 116 -56 139 -92 155 -23 11 -29 9 -47 -9 l-21 -22
22 7 c12 3 31 1 41 -4 35 -18 39 -91 6 -91 -44 0 -156 174 -172 270 -8 44 -8
44 -21 21z"/>
</g>
</svg>
